<svg width="512" height="512" viewBox="0 0 512 512" fill="none" xmlns="http://www.w3.org/2000/svg">
  <rect width="512" height="512" rx="120" fill="#020617"/>
  <path d="M256 104C322 104 376 158 376 224C376 329 256 408 256 408C256 408 136 329 136 224C136 158 190 104 256 104Z" fill="url(#g1)" opacity="0.18"/>
  <path d="M172 348L245 164C249 154 263 154 267 164L340 348" stroke="url(#g2)" stroke-width="34" stroke-linecap="round" stroke-linejoin="round"/>
  <path d="M214 270H298" stroke="#E0F2FE" stroke-width="28" stroke-linecap="round"/>
  <path d="M362 162C399 193 420 239 416 288" stroke="#10B981" stroke-width="20" stroke-linecap="round" opacity="0.88"/>
  <path d="M397 117C453 167 481 236 472 307" stroke="#2563EB" stroke-width="14" stroke-linecap="round" opacity="0.5"/>
  <defs>
    <linearGradient id="g1" x1="136" y1="104" x2="398" y2="387" gradientUnits="userSpaceOnUse"><stop stop-color="#2563EB"/><stop offset="1" stop-color="#10B981"/></linearGradient>
    <linearGradient id="g2" x1="172" y1="164" x2="340" y2="348" gradientUnits="userSpaceOnUse"><stop stop-color="#60A5FA"/><stop offset="1" stop-color="#10B981"/></linearGradient>
  </defs>
</svg>
